<?xml version="1.0" encoding="UTF-8" standalone="no"?>
<!DOCTYPE svg PUBLIC "-//W3C//DTD SVG 1.1//EN"
 "http://www.w3.org/Graphics/SVG/1.1/DTD/svg11.dtd">
<!-- Generated by graphviz version 2.40.1 (20161225.0304)
 -->
<!-- Title: %3 Pages: 1 -->
<svg width="265pt" height="218pt"
 viewBox="0.00 0.00 265.14 218.00" xmlns="http://www.w3.org/2000/svg" xmlns:xlink="http://www.w3.org/1999/xlink">
<g id="graph0" class="graph" transform="scale(1 1) rotate(0) translate(4 214)">
<title>%3</title>
<polygon fill="#ffffff" stroke="transparent" points="-4,4 -4,-214 261.1413,-214 261.1413,4 -4,4"/>
<!-- Douarnenez -->
<g id="node1" class="node">
<title>Douarnenez</title>
<ellipse fill="none" stroke="#000000" cx="53.2953" cy="-105" rx="53.0913" ry="18"/>
<text text-anchor="middle" x="53.2953" y="-101.3" font-family="Times,serif" font-size="14.00" fill="#000000">Douarnenez</text>
</g>
<!-- Pouldreuzic -->
<g id="node2" class="node">
<title>Pouldreuzic</title>
<ellipse fill="none" stroke="#000000" cx="56.2953" cy="-18" rx="52.7911" ry="18"/>
<text text-anchor="middle" x="56.2953" y="-14.3" font-family="Times,serif" font-size="14.00" fill="#000000">Pouldreuzic</text>
</g>
<!-- Douarnenez&#45;&#45;Pouldreuzic -->
<g id="edge1" class="edge">
<title>Douarnenez&#45;&#45;Pouldreuzic</title>
<path fill="none" stroke="#000000" d="M53.9169,-86.9735C54.4317,-72.0422 55.1598,-50.9283 55.6745,-36.0034"/>
<text text-anchor="middle" x="62.2953" y="-57.8" font-family="Times,serif" font-size="14.00" fill="#000000">17</text>
</g>
<!-- Plomelin -->
<g id="node3" class="node">
<title>Plomelin</title>
<ellipse fill="none" stroke="#000000" cx="171.2953" cy="-18" rx="42.7926" ry="18"/>
<text text-anchor="middle" x="171.2953" y="-14.3" font-family="Times,serif" font-size="14.00" fill="#000000">Plomelin</text>
</g>
<!-- Douarnenez&#45;&#45;Plomelin -->
<g id="edge2" class="edge">
<title>Douarnenez&#45;&#45;Plomelin</title>
<path fill="none" stroke="#000000" d="M79.3665,-89.1297C88.9431,-83.0696 99.7684,-75.944 109.2953,-69 124.2754,-58.0813 140.4248,-44.7422 152.4852,-34.4448"/>
<text text-anchor="middle" x="136.2953" y="-57.8" font-family="Times,serif" font-size="14.00" fill="#000000">25</text>
</g>
<!-- Plouneour -->
<g id="node4" class="node">
<title>Plouneour</title>
<ellipse fill="none" stroke="#000000" cx="171.2953" cy="-105" rx="46.5926" ry="18"/>
<text text-anchor="middle" x="171.2953" y="-101.3" font-family="Times,serif" font-size="14.00" fill="#000000">Plouneour</text>
</g>
<!-- Plouneour&#45;&#45;Pouldreuzic -->
<g id="edge3" class="edge">
<title>Plouneour&#45;&#45;Pouldreuzic</title>
<path fill="none" stroke="#000000" d="M139.9984,-91.6056C127.6559,-85.5927 113.7263,-77.8514 102.2953,-69 89.8507,-59.3638 78.0096,-46.1056 69.4583,-35.5225"/>
<text text-anchor="middle" x="105.7953" y="-57.8" font-family="Times,serif" font-size="14.00" fill="#000000">9</text>
</g>
<!-- Plouneour&#45;&#45;Plomelin -->
<g id="edge4" class="edge">
<title>Plouneour&#45;&#45;Plomelin</title>
<path fill="none" stroke="#000000" d="M171.2953,-86.9735C171.2953,-72.0422 171.2953,-50.9283 171.2953,-36.0034"/>
<text text-anchor="middle" x="178.2953" y="-57.8" font-family="Times,serif" font-size="14.00" fill="#000000">11</text>
</g>
<!-- LaTorche -->
<g id="node5" class="node">
<title>LaTorche</title>
<ellipse fill="none" stroke="#000000" cx="212.2953" cy="-192" rx="44.6926" ry="18"/>
<text text-anchor="middle" x="212.2953" y="-188.3" font-family="Times,serif" font-size="14.00" fill="#000000">LaTorche</text>
</g>
<!-- LaTorche&#45;&#45;Plomelin -->
<g id="edge5" class="edge">
<title>LaTorche&#45;&#45;Plomelin</title>
<path fill="none" stroke="#000000" d="M219.9198,-174.024C227.8297,-152.6945 237.6994,-116.3294 227.2953,-87 219.9195,-66.2075 203.3103,-47.1142 190.0846,-34.3097"/>
<text text-anchor="middle" x="238.2953" y="-101.3" font-family="Times,serif" font-size="14.00" fill="#000000">20</text>
</g>
<!-- LaTorche&#45;&#45;Plouneour -->
<g id="edge6" class="edge">
<title>LaTorche&#45;&#45;Plouneour</title>
<path fill="none" stroke="#000000" d="M203.8,-173.9735C196.7634,-159.0422 186.8132,-137.9283 179.7796,-123.0034"/>
<text text-anchor="middle" x="201.2953" y="-144.8" font-family="Times,serif" font-size="14.00" fill="#000000">10</text>
</g>
</g>
</svg>
